<?xml version="1.0" encoding="UTF-8"?>
<svg version="1.1" xmlns="http://www.w3.org/2000/svg" width="841" height="885">
<path d="M0 0 C5.75284369 4.36022447 10.58246385 9.46602772 15.22265625 14.96875 C17.22113626 17.25272715 19.33781965 19.3706352 21.5 21.5 C25.54820141 25.50731049 29.31306302 29.66110465 33 34 C33.79921875 34.92167969 34.5984375 35.84335937 35.421875 36.79296875 C86.5853571 96.0954527 125.63882213 170.80497222 120.55859375 251.046875 C119.73237408 261.12371363 117.91241556 271.0804241 116 281 C118.47287379 282.2364369 120.61933547 282.45149383 123.36328125 282.83203125 C124.46889404 282.98897461 125.57450684 283.14591797 126.71362305 283.30761719 C128.49506714 283.55753418 128.49506714 283.55753418 130.3125 283.8125 C142.28494691 285.5318833 154.14454325 287.61111911 166 290 C165.46600586 289.68111816 164.93201172 289.36223633 164.38183594 289.03369141 C154.84074905 283.22616762 149.91952278 276.8903675 147 266 C146.49648865 262.12383656 146.47504117 258.34137258 146.5625 254.4375 C146.57716309 253.36105225 146.59182617 252.28460449 146.60693359 251.17553711 C147.79220734 199.05746503 164.8382034 149.07095978 201 111 C201.48919922 110.47825195 201.97839844 109.95650391 202.48242188 109.41894531 C216.46739401 94.58665846 232.31879977 83.06317618 250 73 C250.74975098 72.57090332 251.49950195 72.14180664 252.27197266 71.69970703 C284.78551953 53.30067611 340.16018042 30.75794308 378.1875 40.0625 C387.2214666 43.18016103 393.66176511 49.59378091 398 58 C410.08938637 87.70416239 390.37148695 136.58051531 378.87890625 164.16796875 C371.42650824 181.50497019 362.50485424 198.02052535 351 213 C350.33484375 213.8765625 349.6696875 214.753125 348.984375 215.65625 C343.69822131 222.44659376 337.89426449 228.74006475 332 235 C331.34386719 235.71027344 330.68773437 236.42054688 330.01171875 237.15234375 C293.67198245 275.20401624 239.49003805 290.82447474 188.375 292.5625 C187.18003906 292.60568359 185.98507812 292.64886719 184.75390625 292.69335938 C181.83602594 292.79840307 178.91807562 292.90055648 176 293 C176.78310547 293.24532471 177.56621094 293.49064941 178.37304688 293.7434082 C235.02139271 311.64650115 285.62685138 341.8374701 314.02929688 396.04101562 C319.79780316 407.68248806 323.34901612 419.94621101 320.31640625 432.92578125 C316.48657368 443.14396525 309.54960824 450.87405131 299.984375 456.1015625 C291.5904616 459.5296111 279.95807429 459.49938911 271.5 456.375 C259.88109052 450.79948304 253.75781153 442.40654354 248.75 430.8125 C234.98087696 400.53804439 205.70465148 381.84711385 175.61425781 370.06591797 C142.37366187 357.67190541 107.54047526 353.83017523 72.32617188 352.77050781 C59.84136706 352.35764482 48.57572958 351.9295147 39 343 C38.29746094 342.3503125 37.59492188 341.700625 36.87109375 341.03125 C29.66897182 333.70975589 26.88694268 325.63102134 26.5 315.4375 C26.82886974 306.76356067 29.97401261 299.93535976 33.88989258 292.34570312 C51.84104504 257.50599263 49.68005595 218.60753981 38 182 C27.48675388 151.3621732 10.30589945 123.10034793 -10 98 C-10.83478373 96.92821143 -11.6680867 95.8552681 -12.5 94.78125 C-13.7065625 93.24984375 -13.7065625 93.24984375 -14.9375 91.6875 C-16.00291016 90.33205078 -16.00291016 90.33205078 -17.08984375 88.94921875 C-17.72019531 88.30597656 -18.35054688 87.66273437 -19 87 C-22.16879304 86.64893633 -22.16879304 86.64893633 -24.2421875 89.2109375 C-25.13112847 90.25608761 -26.00781055 91.31173275 -26.875 92.375 C-27.59248413 93.2419751 -27.59248413 93.2419751 -28.32446289 94.12646484 C-57.17799333 129.50190655 -80.49287552 171.35300739 -87 217 C-87.19722656 218.29164063 -87.19722656 218.29164063 -87.3984375 219.609375 C-90.71341219 245.59160904 -86.53041391 272.85555894 -73.42773438 295.60864258 C-67.75227061 305.51532787 -66.22098493 316.08071127 -69.125 327.25 C-72.18747577 336.15254585 -79.11847158 343.80246396 -87.37109375 348.2890625 C-92.86680701 350.7977789 -97.54453913 352.10337695 -103.609375 352.2109375 C-104.74036621 352.23712158 -105.87135742 352.26330566 -107.03662109 352.2902832 C-108.26203613 352.31823975 -109.48745117 352.34619629 -110.75 352.375 C-169.2949455 354.0982125 -232.74529688 363.96531004 -275.23828125 407.9921875 C-282.95308404 416.2328212 -287.85985192 425.89056361 -292.390625 436.1484375 C-296.97598928 446.15057825 -303.58479147 453.05247985 -314 457 C-321.82323329 459.60192357 -333.51018285 459.11893667 -341.0546875 456.03515625 C-350.45908688 451.03080718 -358.08638154 443.4434973 -361.33203125 433.16796875 C-364.07060911 420.17974278 -361.52200894 409.72405386 -356 398 C-355.70029297 397.36175293 -355.40058594 396.72350586 -355.09179688 396.06591797 C-331.98933113 348.00935573 -284.66930545 316.45524361 -235.80273438 299.00561523 C-229.58428513 296.82624749 -223.32979999 294.83049319 -217 293 C-217.66193359 292.98541748 -218.32386719 292.97083496 -219.00585938 292.95581055 C-270.58296459 291.70010504 -321.0356636 280.53708084 -361 246 C-362.20462891 244.95972656 -362.20462891 244.95972656 -363.43359375 243.8984375 C-408.92403762 203.73058846 -437.34894234 141.20774732 -441.140625 80.75805664 C-441.65269079 68.46719755 -441.36690269 59.10457762 -433.375 49.1875 C-427.46296152 42.94394535 -420.10468732 39.33429156 -411.49438477 38.86279297 C-352.95497344 38.96115098 -290.68725348 64.2706758 -248.43212891 104.63525391 C-247.05300947 105.94948467 -245.65764787 107.24660661 -244.26171875 108.54296875 C-231.99974491 120.27258482 -222.11422075 134.13820509 -214 149 C-213.66162109 149.61633301 -213.32324219 150.23266602 -212.97460938 150.86767578 C-199.46063478 175.82201798 -192.14111556 202.89264721 -189 231 C-188.86851562 232.12921875 -188.73703125 233.2584375 -188.6015625 234.421875 C-188.29505349 237.6195095 -188.11929647 240.78952139 -188 244 C-187.96745117 244.82677246 -187.93490234 245.65354492 -187.90136719 246.50537109 C-187.38845437 261.29435725 -187.31586587 272.5649242 -197.70703125 284.02734375 C-200.61050747 286.52522363 -203.62977964 288.18276417 -207 290 C-206.33806641 289.86424561 -205.67613281 289.72849121 -204.99414062 289.58862305 C-189.05478191 286.34836972 -173.16934499 283.77038233 -157 282 C-157.19335938 281.1234375 -157.38671875 280.246875 -157.5859375 279.34375 C-160.94804879 262.96594052 -162.86667841 245.72504932 -162 229 C-161.9383667 227.78884521 -161.9383667 227.78884521 -161.87548828 226.55322266 C-160.59142643 203.42780205 -156.42714857 180.94239018 -149 159 C-148.74524902 158.2373584 -148.49049805 157.4747168 -148.22802734 156.68896484 C-135.77311952 119.87085176 -115.55396814 85.09841255 -91 55 C-89.94190784 53.6777235 -88.88467578 52.35475845 -87.828125 51.03125 C-82.38801331 44.24548867 -76.8678387 37.57750858 -70.984375 31.16796875 C-69.07442617 29.08131206 -67.22054653 26.95611046 -65.375 24.8125 C-62.62818476 21.65429538 -59.73381096 18.70639294 -56.7421875 15.78125 C-54.9304267 13.92886676 -53.28494355 11.98887246 -51.625 10 C-38.41934361 -5.17621091 -17.94616661 -11.11938277 0 0 Z M-370 110 C-368.81020977 117.02819391 -366.96487571 123.48996724 -364.375 130.125 C-364.02381104 131.0329834 -363.67262207 131.9409668 -363.31079102 132.87646484 C-348.8279731 169.61100812 -323.88682266 199.55715983 -287.453125 215.80078125 C-277.42047841 220.01500209 -266.70747661 223.04720201 -256 225 C-258.04556747 204.47378848 -266.84825721 184.5071199 -279 168 C-279.57878906 167.19820312 -280.15757812 166.39640625 -280.75390625 165.5703125 C-301.77581085 137.8740667 -335.60254774 116.25057028 -370 110 Z M328 110 C308.39840795 116.03480272 288.7929469 122.90803357 272 135 C271.01644531 135.68964844 270.03289063 136.37929687 269.01953125 137.08984375 C254.87523326 147.44395226 242.1956312 160.02034498 233 175 C232.42693115 175.9278833 232.42693115 175.9278833 231.84228516 176.87451172 C223.4004293 190.87124301 216.40244339 207.61868209 215 224 C244.05862976 223.06262485 272.61720979 203.46169165 292.01953125 183.2890625 C301.46798355 173.09864963 308.64205916 161.29345786 315 149 C315.31420898 148.39752441 315.62841797 147.79504883 315.95214844 147.17431641 C320.0155062 139.27093377 323.13975505 131.15671395 326 122.75 C326.31533691 121.8319458 326.63067383 120.9138916 326.95556641 119.96801758 C327.23835449 119.10716553 327.52114258 118.24631348 327.8125 117.359375 C328.06644531 116.59077148 328.32039062 115.82216797 328.58203125 115.03027344 C329.21552221 112.81152577 329.21552221 112.81152577 328 110 Z " fill="#FFF" transform="translate(441,5)"/>
<path d="M0 0 C8.25376625 6.13375125 15.33393245 14.15024598 21.953125 21.98046875 C23.76482755 24.07865434 25.64797419 26.10065558 27.54345703 28.12304688 C33.48809775 34.48863797 38.89816418 41.1603192 44.19873047 48.06640625 C45.79691643 50.12764706 47.42290023 52.16449229 49.0546875 54.19921875 C61.7887963 70.15994141 72.68044059 87.24039266 82.70703125 105.01171875 C83.08279297 105.67139648 83.45855469 106.33107422 83.84570312 107.01074219 C104.38447715 143.33625154 115.76464766 183.49385256 115.95703125 225.13671875 C115.96247955 225.85170532 115.96792786 226.56669189 115.97354126 227.30334473 C116.05086402 240.9489522 114.87602558 254.26691836 111.70703125 267.57421875 C111.54203125 268.30189453 111.37703125 269.02957031 111.20703125 269.77929688 C110.18197217 274.2359014 108.99823472 278.62508552 107.70703125 283.01171875 C108.59261719 283.06070312 109.47820312 283.1096875 110.390625 283.16015625 C126.586137 284.13761691 142.3571691 286.23735507 158.25537109 289.51025391 C160.39917648 289.94874985 162.54601189 290.36308161 164.6953125 290.7734375 C217.84200006 301.90221273 270.76843616 330.39475301 301.70703125 376.01171875 C309.73044687 388.63104353 318.36203316 402.54927233 316.70703125 418.01171875 C314.69176441 424.78592897 309.90490279 430.50366838 303.86328125 434.11328125 C297.7964792 436.77372313 290.84582224 437.16218687 284.47265625 435.390625 C274.28641948 430.94895199 270.50461169 421.75201354 266.17944336 412.22216797 C262.83526397 404.98195976 258.91699868 399.09288934 253.70703125 393.01171875 C252.47726562 391.54025391 252.47726562 391.54025391 251.22265625 390.0390625 C239.31755966 376.18333753 224.72821177 366.53649032 208.70703125 358.01171875 C207.54429687 357.3878125 206.3815625 356.76390625 205.18359375 356.12109375 C170.84267013 338.99065632 130.44319933 331.41803001 92.31640625 330.8359375 C91.59341339 330.82388275 90.87042053 330.811828 90.1255188 330.79940796 C87.14973617 330.75123563 84.17438561 330.70348318 81.19824219 330.68579102 C71.04511419 330.6141504 62.83002283 329.92537174 54.39453125 323.76171875 C49.22022936 318.46708426 46.09542937 311.38989576 46.16796875 303.90625 C47.15313353 298.61634344 49.99245641 294.03300774 52.4765625 289.3125 C71.44756534 253.19636123 70.41301125 211.15627233 59.01953125 172.88671875 C55.44935684 161.47969835 51.00694018 150.7124668 45.70703125 140.01171875 C45.10665039 138.77059326 45.10665039 138.77059326 44.49414062 137.50439453 C35.06599506 118.10988249 23.13412314 99.88224728 9.70703125 83.01171875 C8.97105713 82.08504395 8.97105713 82.08504395 8.22021484 81.13964844 C1.62952653 72.86517875 -5.08522855 64.75957385 -12.29296875 57.01171875 C-17.54632077 61.14733629 -21.65579498 65.65000734 -25.80859375 70.8828125 C-27.48165517 72.98992288 -29.16509359 75.05806378 -30.90234375 77.109375 C-45.36461712 94.38057381 -58.11021489 113.93097906 -68.29296875 134.01171875 C-68.67211426 134.75228516 -69.05125977 135.49285156 -69.44189453 136.25585938 C-79.26358116 155.62811957 -86.33487241 175.64030085 -90.29296875 197.01171875 C-90.47915771 197.99873779 -90.66534668 198.98575684 -90.85717773 200.00268555 C-92.3375348 208.57875143 -92.65248028 217.00994195 -92.60546875 225.69921875 C-92.60364594 226.40071045 -92.60182312 227.10220215 -92.59994507 227.82495117 C-92.55212256 238.77770658 -92.01840281 249.36213882 -89.29296875 260.01171875 C-89.12667969 260.67977539 -88.96039063 261.34783203 -88.7890625 262.03613281 C-86.02652553 272.75375309 -81.42689861 282.25416774 -76.29296875 292.01171875 C-72.69737817 298.90243273 -70.63367773 304.66117071 -73.0234375 312.3671875 C-75.79932259 319.131283 -79.15466797 324.26135942 -85.98046875 327.32421875 C-87.41452851 327.89543247 -88.85149411 328.45948387 -90.29296875 329.01171875 C-90.95296875 329.34171875 -91.61296875 329.67171875 -92.29296875 330.01171875 C-95.33894605 330.2043542 -98.36862061 330.34209342 -101.41796875 330.44140625 C-103.32830849 330.51279382 -105.23862679 330.58475671 -107.14892578 330.65722656 C-108.15231995 330.69416626 -109.15571411 330.73110596 -110.18951416 330.76916504 C-171.44699993 333.08949697 -234.81330835 344.80512398 -278.54296875 391.38671875 C-285.54531781 399.59789439 -290.79394872 408.40897734 -294.79296875 418.38671875 C-298.05505781 426.41875361 -302.36832714 431.44234052 -310.16796875 435.51171875 C-318.35032281 436.8208954 -325.33065662 436.91229836 -332.29296875 432.01171875 C-338.78423527 426.24170407 -342.19796091 420.90787333 -342.85546875 412.13671875 C-342.69102972 404.05728091 -338.89746658 397.06227495 -335.29296875 390.01171875 C-334.97763184 389.39329102 -334.66229492 388.77486328 -334.33740234 388.13769531 C-327.5109193 375.01011638 -318.45493438 363.71984865 -308.29296875 353.01171875 C-307.84727539 352.53879395 -307.40158203 352.06586914 -306.94238281 351.57861328 C-299.63584315 343.87339833 -291.9290442 337.18283644 -283.29296875 331.01171875 C-282.74366699 330.61275391 -282.19436523 330.21378906 -281.62841797 329.80273438 C-239.82211782 299.67600111 -184.3983584 284.59884265 -133.29296875 283.01171875 C-133.79957031 281.25408203 -133.79957031 281.25408203 -134.31640625 279.4609375 C-143.34488991 247.81401049 -144.53206658 213.20224407 -137.29296875 181.01171875 C-137.08929688 180.04830566 -136.885625 179.08489258 -136.67578125 178.09228516 C-124.02856278 118.78893125 -88.43715046 66.58597965 -47.77734375 22.71484375 C-45.73555776 20.49327786 -43.75152592 18.24352857 -41.79296875 15.94921875 C-30.58414938 3.12761962 -18.0859169 -10.19706785 0 0 Z " fill="#E6A820" transform="translate(433.29296875,14.98828125)"/>
<path d="M0 0 C1.0726489 0.93970269 2.14042538 1.8849978 3.203125 2.8359375 C3.72455078 3.30225586 4.24597656 3.76857422 4.78320312 4.24902344 C37.73481264 34.293138 51.02158788 79.59049187 54.203125 122.8359375 C54.34835964 126.40670851 54.38916475 129.97339551 54.40625 133.546875 C54.41326431 134.54062637 54.42027863 135.53437775 54.42750549 136.5582428 C54.44498716 139.77585413 54.4513654 142.9932803 54.453125 146.2109375 C54.45379974 147.31929962 54.45447449 148.42766174 54.45516968 149.5696106 C54.36905049 239.1198866 33.42146559 331.39291743 -45.09375 457.2578125 C-53.2364753 464.95128399 -61.92037554 468.21225993 -73.05078125 468.046875 C-83.42171189 467.2502459 -92.08976313 463.1474125 -99.109375 455.4609375 C-106.17975417 446.52993223 -108.26604573 437.34754522 -107.4765625 426.12109375 C-105.73777271 417.71694312 -101.97730631 411.12843838 -96.796875 404.3984375 C-72.58861758 371.82894412 -55.50184164 335.23998096 -42.796875 296.8359375 C-42.46993652 295.84964355 -42.14299805 294.86334961 -41.80615234 293.84716797 C-20.89040854 229.89851001 -1.53307713 137.36310124 -32.921875 74.2109375 C-38.7789048 63.80549844 -46.80202453 54.86568451 -57.796875 49.8359375 C-58.52777344 49.49949219 -59.25867188 49.16304688 -60.01171875 48.81640625 C-70.68665226 44.82014909 -84.55423278 45.37743973 -95.0546875 49.5078125 C-109.192734 56.35529941 -118.04464023 65.24146529 -123.41015625 80.1015625 C-124.92582746 84.79125053 -125.39179553 89.31615808 -125.734375 94.2109375 C-126.70674275 105.04273536 -128.88497146 114.85401711 -136.796875 122.8359375 C-146.12061098 130.32214887 -155.83743403 133.79338911 -167.796875 132.8359375 C-177.84261785 130.91163985 -186.43144932 125.88951744 -192.796875 117.8359375 C-201.7883899 102.78037767 -200.42074265 83.7021551 -196.38330078 67.07421875 C-188.15851664 35.68170377 -170.09948713 7.76925312 -141.796875 -9.1640625 C-97.01604288 -34.60314868 -40.41423279 -34.18933402 0 0 Z " fill="#ADC837" transform="translate(361.796875,417.1640625)"/>
<path d="M0 0 C1.03382813 0.36867188 2.06765625 0.73734375 3.1328125 1.1171875 C31.91621169 12.24676852 55.66301192 35.83081119 68.10498047 63.88623047 C76.1057042 82.78155672 83.54744068 109.81156589 76.03515625 129.9375 C70.96864507 140.03228454 62.59456321 147.26315794 52 151 C42.60051475 153.89214931 32.82825358 151.73928535 24 148 C14.73374796 142.66153241 8.89371414 134.19376572 6 124 C5.49779271 120.73871485 5.27750433 117.4785751 5.0625 114.1875 C3.8924138 100.32121877 -0.44066707 87.42171154 -10.89453125 77.66015625 C-23.96034625 67.35779748 -36.79266534 64.69345863 -53 66 C-64.66846045 67.8044011 -74.67586276 74.96733888 -82 84 C-114.81409437 132.76957144 -103.50277512 204.5155352 -93.1875 258.75 C-85.90486405 295.42833537 -74.74818352 331.06647943 -59 365 C-58.57509277 365.91620117 -58.15018555 366.83240234 -57.71240234 367.77636719 C-48.02996116 388.3846546 -36.29362192 408.02711423 -22.40112305 426.07739258 C-15.11747948 435.56907419 -12.06865101 444.92420806 -13.5625 456.875 C-15.62428246 467.5365856 -21.00159738 475.88570078 -30 482 C-39.51838498 486.8725066 -49.61906714 488.64039499 -60.0625 485.875 C-90.8122011 475.41722334 -110.67520886 426.86672982 -124.09399414 399.9440918 C-151.35057101 344.01932178 -166.52865982 282.67187194 -173 221 C-173.11859375 219.91589844 -173.2371875 218.83179688 -173.359375 217.71484375 C-175.13917159 200.78558809 -175.22855179 183.81775044 -175.3125 166.8125 C-175.32212769 165.72223511 -175.33175537 164.63197021 -175.3416748 163.50866699 C-175.49547861 143.17366082 -174.3191558 122.76226013 -169.1875 103 C-168.92888184 101.97003906 -168.67026367 100.94007813 -168.40380859 99.87890625 C-158.83220246 62.72878386 -138.75658799 27.98370192 -105.05761719 7.83886719 C-72.41495717 -10.60990342 -35.00950759 -12.57330703 0 0 Z " fill="#ADC837" transform="translate(600,398)"/>
<path d="M0 0 C0.70350586 0.32226562 1.40701172 0.64453125 2.13183594 0.9765625 C20.48994329 9.46147449 36.27079771 21.19137285 51 35 C51.49371094 35.45971191 51.98742187 35.91942383 52.49609375 36.39306641 C95.08621991 76.36777646 120.14390353 140.41625168 122.33374023 198.28955078 C122.48038058 205.70139608 121.56861752 211.49912682 118 218 C117.46375 219.051875 116.9275 220.10375 116.375 221.1875 C109.79327498 228.98164805 101.65912804 232.80346955 91.6472168 233.86669922 C86.69499657 234.1160686 81.84698499 233.4817654 76.9375 232.875 C75.23327881 232.66858887 75.23327881 232.66858887 73.49462891 232.45800781 C12.38191357 224.64628959 -50.29628088 198.30294134 -88.88769531 148.52246094 C-110.94258235 119.48482521 -123.28649735 86.93078978 -129 51 C-129.11859375 50.26281738 -129.2371875 49.52563477 -129.359375 48.76611328 C-130.87688307 38.88198703 -131.24263149 28.99112143 -131.375 19 C-131.40110352 17.8661084 -131.42720703 16.7322168 -131.45410156 15.56396484 C-131.47440428 5.72149953 -129.03935147 -2.43133933 -122.828125 -10.1796875 C-96.26345354 -36.63083473 -28.67802086 -13.32796712 0 0 Z M-63 48 C-62.46111931 55.24495152 -60.81997164 61.62789168 -58.5 68.5 C-58.14542725 69.55155273 -57.79085449 70.60310547 -57.42553711 71.68652344 C-50.85498135 90.53504229 -40.6643331 105.49554516 -27 120 C-26.40058594 120.66386719 -25.80117188 121.32773437 -25.18359375 122.01171875 C-6.60922561 141.78960966 21.12105641 155.00023372 47 162 C48.32 162 49.64 162 51 162 C45.43992812 133.50463163 30.11795097 106.61942482 10 86 C9.22398437 85.15050781 8.44796875 84.30101562 7.6484375 83.42578125 C-10.27146368 64.33719086 -35.81159563 53.43875076 -61 48 C-61.66 48 -62.32 48 -63 48 Z " fill="#010101" transform="translate(689,610)"/>
<path d="M0 0 C12.75889208 -0.45184213 23.95273453 0.23024971 33.94824219 9.078125 C41.5856708 17.91072374 43.32225195 25.96050694 43.26074219 37.390625 C43.25337036 39.029104 43.25337036 39.029104 43.24584961 40.70068359 C42.47475479 96.10088052 23.10979662 146.09145274 -15.05175781 186.078125 C-15.65246094 186.73167969 -16.25316406 187.38523437 -16.87207031 188.05859375 C-22.60638871 194.12429236 -29.41428302 199.05479134 -36.05175781 204.078125 C-36.61813965 204.51060547 -37.18452148 204.94308594 -37.76806641 205.38867188 C-47.31646499 212.63440199 -57.41523667 218.57048355 -68.05175781 224.078125 C-69.16695801 224.65626953 -69.16695801 224.65626953 -70.3046875 225.24609375 C-100.75749894 240.81115917 -154.52771477 263.1234045 -189.05175781 252.078125 C-197.14411961 249.21582666 -203.54699418 243.45647628 -207.48925781 235.828125 C-219.78694393 209.13718294 -202.33464355 164.5100501 -193.07080078 138.80712891 C-190.42497062 131.72157799 -187.37268636 124.87053857 -184.05175781 118.078125 C-183.65118164 117.25248047 -183.25060547 116.42683594 -182.83789062 115.57617188 C-159.10601814 67.16967873 -119.69927321 29.80640825 -68.53125 11.90283203 C-46.48685042 4.57061642 -23.18319367 0.88274893 0 0 Z M-89.05175781 97.078125 C-90.29892578 98.14353516 -90.29892578 98.14353516 -91.57128906 99.23046875 C-114.94426242 119.65938095 -134.46630175 150.9989228 -139.05175781 182.078125 C-133.25784959 181.46373742 -128.09814262 179.95535825 -122.61425781 178.015625 C-121.73898438 177.70689453 -120.86371094 177.39816406 -119.96191406 177.08007812 C-111.63210487 174.05931156 -103.8176933 170.32444908 -96.05175781 166.078125 C-94.98441406 165.50191406 -93.91707031 164.92570312 -92.81738281 164.33203125 C-81.46276575 157.96344422 -71.5062063 149.98588769 -62.05175781 141.078125 C-61.03855469 140.16160156 -61.03855469 140.16160156 -60.00488281 139.2265625 C-42.01667058 122.31764301 -29.2720753 96.23441842 -25.05175781 72.078125 C-25.05175781 70.758125 -25.05175781 69.438125 -25.05175781 68.078125 C-46.60581669 68.078125 -73.34035714 83.3923264 -89.05175781 97.078125 Z " fill="#010101" transform="translate(240.0517578125,589.921875)"/>
<path d="M0 0 C0.84046875 -0.01611328 1.6809375 -0.03222656 2.546875 -0.04882812 C8.49386314 -0.05350343 12.79517574 0.82151869 17.328125 4.99609375 C17.79734375 5.57488281 18.2665625 6.15367188 18.75 6.75 C19.22953125 7.32621094 19.7090625 7.90242188 20.203125 8.49609375 C26.51148781 17.3316019 23.46885872 29.66741133 21.8125 39.75 C21.63098389 40.87470703 21.44946777 41.99941406 21.26245117 43.15820312 C16.71980687 70.51823148 8.73105284 96.3718363 -3.5 121.3125 C-3.83354492 121.99344727 -4.16708984 122.67439453 -4.51074219 123.37597656 C-26.93705772 168.51869928 -65.20439672 201.81172272 -112.6875 218.0625 C-123.72334792 221.72009092 -134.68051152 224.3080855 -146.1796875 225.97021484 C-148.21958277 226.27113374 -150.25144063 226.62551573 -152.28125 226.98828125 C-160.50867708 228.35025398 -168.67222613 228.54450509 -177 228.625 C-178.68464355 228.65158691 -178.68464355 228.65158691 -180.40332031 228.67871094 C-188.01476204 228.67185584 -193.14338392 228.04462937 -199.1875 223.125 C-204.29794599 216.90959272 -206.14466666 211.43286535 -205.875 203.4375 C-205.86065918 202.61741455 -205.84631836 201.7973291 -205.83154297 200.95239258 C-205.62674397 193.02970531 -204.82319254 185.19387562 -203.76904297 177.34375 C-203.5251722 175.50254779 -203.30976396 173.65763112 -203.09765625 171.8125 C-198.57969814 135.32460971 -183.73329609 101.00136665 -159.5 73.3125 C-158.78457031 72.47589844 -158.06914063 71.63929688 -157.33203125 70.77734375 C-127.34409119 36.43717168 -83.88478668 16.46099056 -40.3125 5.875 C-39.28183411 5.6233609 -39.28183411 5.6233609 -38.23034668 5.36663818 C-25.60774541 2.31561492 -13.02377928 -0.05184626 0 0 Z M-36.5 58.3125 C-56.10159205 64.34730272 -75.7070531 71.22053357 -92.5 83.3125 C-93.48355469 84.00214844 -94.46710938 84.69179687 -95.48046875 85.40234375 C-109.62476674 95.75645226 -122.3043688 108.33284498 -131.5 123.3125 C-132.07306885 124.2403833 -132.07306885 124.2403833 -132.65771484 125.18701172 C-141.0995707 139.18374301 -148.09755661 155.93118209 -149.5 172.3125 C-120.44137024 171.37512485 -91.88279021 151.77419165 -72.48046875 131.6015625 C-63.03201645 121.41114963 -55.85794084 109.60595786 -49.5 97.3125 C-49.18579102 96.71002441 -48.87158203 96.10754883 -48.54785156 95.48681641 C-44.4844938 87.58343377 -41.36024495 79.46921395 -38.5 71.0625 C-38.18466309 70.1444458 -37.86932617 69.2263916 -37.54443359 68.28051758 C-37.26164551 67.41966553 -36.97885742 66.55881348 -36.6875 65.671875 C-36.43355469 64.90327148 -36.17960937 64.13466797 -35.91796875 63.34277344 C-35.28447779 61.12402577 -35.28447779 61.12402577 -36.5 58.3125 Z " fill="#7EB3E5" transform="translate(805.5,56.6875)"/>
<path d="M0 0 C35.98917981 12.28972327 72.05925457 32.03883037 96.22802734 62.18310547 C97.00791016 63.14861328 97.78779297 64.11412109 98.59130859 65.10888672 C104.42566212 72.4465706 109.544786 80.04905472 114.22802734 88.18310547 C114.88544922 89.30974609 115.54287109 90.43638672 116.22021484 91.59716797 C132.60614067 120.47766095 147.58882273 167.86929223 139.50146484 201.17529297 C137.20332102 206.87394228 133.71459095 210.82228304 128.29443359 213.78857422 C123.174027 215.88973183 117.93597514 215.67166013 112.47802734 215.62060547 C111.34276611 215.61375732 110.20750488 215.60690918 109.0378418 215.59985352 C62.51353191 214.74698769 14.34539979 198.62850952 -19.2578125 165.66210938 C-20.88706601 164.07068439 -22.54181257 162.5084354 -24.19775391 160.94482422 C-36.43095307 149.23511403 -46.49525065 135.96940621 -54.77197266 121.18310547 C-55.22040527 120.38582031 -55.66883789 119.58853516 -56.13085938 118.76708984 C-74.46545435 85.80955217 -93.12395046 39.85636281 -88.77197266 1.18310547 C-77.62837858 -28.69325452 -21.06557139 -6.97267954 0 0 Z M-29.77197266 45.18310547 C-28.58218243 52.21129938 -26.73684836 58.67307271 -24.14697266 65.30810547 C-23.79578369 66.21608887 -23.44459473 67.12407227 -23.08276367 68.05957031 C-8.59994576 104.79411359 16.34120468 134.7402653 52.77490234 150.98388672 C62.80754894 155.19810756 73.52055074 158.23030748 84.22802734 160.18310547 C82.18245987 139.65689395 73.37977013 119.69022537 61.22802734 103.18310547 C60.64923828 102.38130859 60.07044922 101.57951172 59.47412109 100.75341797 C38.45221649 73.05717216 4.6254796 51.43367575 -29.77197266 45.18310547 Z " fill="#7EB3E5" transform="translate(100.77197265625,69.81689453125)"/>
<path d="M0 0 C1.0726489 0.93970269 2.14042538 1.8849978 3.203125 2.8359375 C3.72455078 3.30225586 4.24597656 3.76857422 4.78320312 4.24902344 C37.73481264 34.293138 51.02158788 79.59049187 54.203125 122.8359375 C54.34835964 126.40670851 54.38916475 129.97339551 54.40625 133.546875 C54.41326431 134.54062637 54.42027863 135.53437775 54.42750549 136.5582428 C54.44498716 139.77585413 54.4513654 142.9932803 54.453125 146.2109375 C54.45379974 147.31929962 54.45447449 148.42766174 54.45516968 149.5696106 C54.36905049 239.1198866 33.42146559 331.39291743 -45.09375 457.2578125 C-53.2364753 464.95128399 -61.92037554 468.21225993 -73.05078125 468.046875 C-83.42171189 467.2502459 -92.08976313 463.1474125 -99.109375 455.4609375 C-106.17975417 446.52993223 -108.26604573 437.34754522 -107.4765625 426.12109375 C-105.73777271 417.71694312 -101.97730631 411.12843838 -96.796875 404.3984375 C-72.58861758 371.82894412 -55.50184164 335.23998096 -42.796875 296.8359375 C-42.46993652 295.84964355 -42.14299805 294.86334961 -41.80615234 293.84716797 C-20.89040854 229.89851001 -1.53307713 137.36310124 -32.921875 74.2109375 C-38.7789048 63.80549844 -46.80202453 54.86568451 -57.796875 49.8359375 C-58.52777344 49.49949219 -59.25867188 49.16304688 -60.01171875 48.81640625 C-70.68665226 44.82014909 -84.55423278 45.37743973 -95.0546875 49.5078125 C-109.192734 56.35529941 -118.04464023 65.24146529 -123.41015625 80.1015625 C-124.92582746 84.79125053 -125.39179553 89.31615808 -125.734375 94.2109375 C-126.70674275 105.04273536 -128.88497146 114.85401711 -136.796875 122.8359375 C-146.12061098 130.32214887 -155.83743403 133.79338911 -167.796875 132.8359375 C-177.84261785 130.91163985 -186.43144932 125.88951744 -192.796875 117.8359375 C-201.7883899 102.78037767 -200.42074265 83.7021551 -196.38330078 67.07421875 C-188.15851664 35.68170377 -170.09948713 7.76925312 -141.796875 -9.1640625 C-97.01604288 -34.60314868 -40.41423279 -34.18933402 0 0 Z M-158.875 20.5703125 C-169.94379 33.61888608 -178.62136567 48.17118153 -182.796875 64.8359375 C-182.97734375 65.50463867 -183.1578125 66.17333984 -183.34375 66.86230469 C-186.71803379 79.43037186 -190.75365347 96.03636852 -183.98828125 108.08203125 C-183.59511719 108.66082031 -183.20195312 109.23960937 -182.796875 109.8359375 C-182.43464844 110.40441406 -182.07242188 110.97289062 -181.69921875 111.55859375 C-178.59660564 115.83914811 -174.81502335 118.40218083 -169.796875 119.8359375 C-161.88534133 120.81612751 -154.50444077 120.44315439 -147.796875 115.8359375 C-141.13964083 109.92489881 -138.63036295 103.16007457 -138.07788086 94.46484375 C-138.00065796 93.13259766 -138.00065796 93.13259766 -137.921875 91.7734375 C-136.58593316 75.0269196 -130.89484936 61.1731819 -118.484375 49.4609375 C-104.71438667 38.12938461 -88.80433471 32.67488567 -71.04345703 33.61376953 C-59.90919105 34.7148543 -49.61205987 39.03198413 -40.796875 45.8359375 C-40.02085937 46.41988281 -39.24484375 47.00382812 -38.4453125 47.60546875 C-23.74158934 59.60593009 -16.30992381 77.93136536 -11.796875 95.8359375 C-11.52101563 96.79628906 -11.24515625 97.75664063 -10.9609375 98.74609375 C-6.4625488 114.93583921 -6.45438809 131.72617566 -6.546875 148.3984375 C-6.55030914 149.4136145 -6.55374329 150.4287915 -6.55728149 151.47473145 C-6.66103362 177.66351812 -9.32027439 203.02085389 -13.47912598 228.85351562 C-13.7756748 230.7036704 -14.065349 232.55492342 -14.35449219 234.40625 C-24.32484567 297.36138403 -48.86206207 362.30954507 -87.71875 413.046875 C-94.0590789 421.55626378 -95.66431154 427.23812582 -94.796875 437.8359375 C-92.90551897 445.19656509 -87.17697643 450.02818018 -80.96875 454.0078125 C-75.38378381 456.13733198 -67.96016846 455.74323872 -62.27734375 454.11328125 C-25.95986971 436.96143404 -2.51645107 367.06676331 10.203125 331.8359375 C16.08052203 315.14075028 21.55748098 298.20835579 25.67919922 280.98925781 C26.22386164 278.75071051 26.80676033 276.52446552 27.39453125 274.296875 C36.39282539 239.43424424 41.6527869 201.84377286 42.203125 165.8359375 C42.23411345 164.34276457 42.26556509 162.84960122 42.29736328 161.35644531 C42.91256919 130.68190941 41.80534815 101.28885182 32.203125 71.8359375 C31.96867676 71.10777832 31.73422852 70.37961914 31.49267578 69.62939453 C24.9882133 49.86813059 14.47483944 32.94282972 0.203125 17.8359375 C-0.84294922 16.69318359 -0.84294922 16.69318359 -1.91015625 15.52734375 C-16.86373627 -0.24635949 -40.97936175 -13.23598308 -63.06396484 -14.32519531 C-66.38339756 -14.3629311 -69.70234718 -14.39522066 -73.02197266 -14.40429688 C-75.13095505 -14.41387663 -77.23890739 -14.44487433 -79.34765625 -14.4765625 C-109.40677421 -14.71329186 -138.20470673 -1.15999581 -158.875 20.5703125 Z " fill="#FFF" transform="translate(361.796875,417.1640625)"/>
<path d="M0 0 C1.03382813 0.36867188 2.06765625 0.73734375 3.1328125 1.1171875 C31.91621169 12.24676852 55.66301192 35.83081119 68.10498047 63.88623047 C76.1057042 82.78155672 83.54744068 109.81156589 76.03515625 129.9375 C70.96864507 140.03228454 62.59456321 147.26315794 52 151 C42.60051475 153.89214931 32.82825358 151.73928535 24 148 C14.73374796 142.66153241 8.89371414 134.19376572 6 124 C5.49779271 120.73871485 5.27750433 117.4785751 5.0625 114.1875 C3.8924138 100.32121877 -0.44066707 87.42171154 -10.89453125 77.66015625 C-23.96034625 67.35779748 -36.79266534 64.69345863 -53 66 C-64.66846045 67.8044011 -74.67586276 74.96733888 -82 84 C-114.81409437 132.76957144 -103.50277512 204.5155352 -93.1875 258.75 C-85.90486405 295.42833537 -74.74818352 331.06647943 -59 365 C-58.57509277 365.91620117 -58.15018555 366.83240234 -57.71240234 367.77636719 C-48.02996116 388.3846546 -36.29362192 408.02711423 -22.40112305 426.07739258 C-15.11747948 435.56907419 -12.06865101 444.92420806 -13.5625 456.875 C-15.62428246 467.5365856 -21.00159738 475.88570078 -30 482 C-39.51838498 486.8725066 -49.61906714 488.64039499 -60.0625 485.875 C-90.8122011 475.41722334 -110.67520886 426.86672982 -124.09399414 399.9440918 C-151.35057101 344.01932178 -166.52865982 282.67187194 -173 221 C-173.11859375 219.91589844 -173.2371875 218.83179688 -173.359375 217.71484375 C-175.13917159 200.78558809 -175.22855179 183.81775044 -175.3125 166.8125 C-175.32212769 165.72223511 -175.33175537 164.63197021 -175.3416748 163.50866699 C-175.49547861 143.17366082 -174.3191558 122.76226013 -169.1875 103 C-168.92888184 101.97003906 -168.67026367 100.94007813 -168.40380859 99.87890625 C-158.83220246 62.72878386 -138.75658799 27.98370192 -105.05761719 7.83886719 C-72.41495717 -10.60990342 -35.00950759 -12.57330703 0 0 Z M-114 30 C-114.73476563 30.59039062 -115.46953125 31.18078125 -116.2265625 31.7890625 C-147.21068465 57.51792719 -159.21106153 101.33397099 -162.82702637 139.75228882 C-163.35517347 146.61531252 -163.29524593 153.49649454 -163.25 160.375 C-163.24723053 161.20883209 -163.24446106 162.04266418 -163.24160767 162.90176392 C-163.17340011 180.6439135 -162.39247641 198.31406879 -161 216 C-160.90348145 217.2271875 -160.80696289 218.454375 -160.70751953 219.71875 C-159.17583504 238.06878295 -156.06384103 256.02692675 -152.39642334 274.04711914 C-152.00607055 275.97009497 -151.62139802 277.89422104 -151.23681641 279.81835938 C-148.2257894 294.81653435 -144.74146521 309.45765621 -140 324 C-139.64953613 325.10005371 -139.29907227 326.20010742 -138.93798828 327.33349609 C-126.826506 365.31974187 -111.36000506 402.22589828 -90 436 C-89.62472168 436.5995752 -89.24944336 437.19915039 -88.86279297 437.81689453 C-83.12796652 446.92418217 -76.54786318 455.46826841 -70 464 C-69.30132813 464.92296875 -68.60265625 465.8459375 -67.8828125 466.796875 C-63.95823899 471.38911454 -59.57569653 473.65853623 -53.58203125 474.453125 C-46.64164413 474.661411 -40.55753055 474.46343057 -35 470 C-30.04979156 465.28598441 -26.48448622 460.93708798 -25.62890625 453.984375 C-25.38442242 442.0765743 -29.694861 436.58517344 -36.85961914 427.47583008 C-92.79907084 355.45492961 -114.61486803 253.9318872 -112.98681641 134.81176758 C-109.79334828 109.60976164 -101.5403324 82.40024502 -81.2421875 65.65625 C-67.74710499 55.68775699 -52.73344905 50.83302403 -36 53 C-19.21758644 56.3344056 -4.24249104 64.501431 6.18359375 78.234375 C13.07966997 88.73420718 16.86152257 100.07881526 17.4375 112.5625 C17.91638557 121.29772757 19.32800472 127.89114016 25.875 134 C32.6740612 139.29230954 39.55104111 140.01089558 48 139 C54.57551631 137.01997758 58.90709296 133.73327247 62.84375 128.16015625 C69.32583296 116.05004856 65.97568274 100.75292605 63 88 C62.73316406 86.82695312 62.46632813 85.65390625 62.19140625 84.4453125 C55.24530676 57.21660251 36.64301666 34.29169975 12.91455078 19.76538086 C-5.11962597 9.1625902 -24.3693124 4.83541435 -45.125 4.75 C-46.35476563 4.729375 -47.58453125 4.70875 -48.8515625 4.6875 C-73.23473951 4.58504968 -95.71294573 14.20947191 -114 30 Z " fill="#FFF" transform="translate(600,398)"/>
<path d="M0 0 C0.70350586 0.32226562 1.40701172 0.64453125 2.13183594 0.9765625 C20.48994329 9.46147449 36.27079771 21.19137285 51 35 C51.49371094 35.45971191 51.98742187 35.91942383 52.49609375 36.39306641 C95.08621991 76.36777646 120.14390353 140.41625168 122.33374023 198.28955078 C122.48038058 205.70139608 121.56861752 211.49912682 118 218 C117.46375 219.051875 116.9275 220.10375 116.375 221.1875 C109.79327498 228.98164805 101.65912804 232.80346955 91.6472168 233.86669922 C86.69499657 234.1160686 81.84698499 233.4817654 76.9375 232.875 C75.23327881 232.66858887 75.23327881 232.66858887 73.49462891 232.45800781 C12.38191357 224.64628959 -50.29628088 198.30294134 -88.88769531 148.52246094 C-110.94258235 119.48482521 -123.28649735 86.93078978 -129 51 C-129.11859375 50.26281738 -129.2371875 49.52563477 -129.359375 48.76611328 C-130.87688307 38.88198703 -131.24263149 28.99112143 -131.375 19 C-131.40110352 17.8661084 -131.42720703 16.7322168 -131.45410156 15.56396484 C-131.47440428 5.72149953 -129.03935147 -2.43133933 -122.828125 -10.1796875 C-96.26345354 -36.63083473 -28.67802086 -13.32796712 0 0 Z M-114.3125 -0.625 C-115.01826172 0.22191406 -115.01826172 0.22191406 -115.73828125 1.0859375 C-119.20363485 6.34297547 -119.31813467 11.00991311 -119.25 17.125 C-119.23984863 18.45180786 -119.23984863 18.45180786 -119.22949219 19.80541992 C-118.88887246 42.07442459 -115.58761886 65.02699391 -108 86 C-107.5666333 87.22565674 -107.5666333 87.22565674 -107.12451172 88.47607422 C-101.2729952 104.92530359 -94.22802972 119.76969778 -84 134 C-82.87078125 135.5778125 -82.87078125 135.5778125 -81.71875 137.1875 C-46.47277793 184.85966793 10.66401669 209.77862402 67.66015625 219.6328125 C84.9751791 222.65567996 84.9751791 222.65567996 101.3125 218.4375 C104.99215507 215.44110777 107.02308502 212.28331579 109 208 C109.33 207.34 109.66 206.68 110 206 C113.94515299 156.5498744 88.54883426 98.8946892 58.4375 61.0625 C56.9773394 59.35852779 55.49658881 57.67206824 54 56 C53.27562744 55.17943115 53.27562744 55.17943115 52.53662109 54.34228516 C45.55552972 46.46359422 38.3958462 39.3968352 30 33 C29.13761719 32.29875 28.27523437 31.5975 27.38671875 30.875 C-6.07123607 4.37364965 -49.74236229 -7.14119646 -91.875 -7.4375 C-92.99181152 -7.44773193 -94.10862305 -7.45796387 -95.25927734 -7.46850586 C-102.74721761 -7.38604972 -109.30353745 -6.86151112 -114.3125 -0.625 Z " fill="#FFF" transform="translate(689,610)"/>
<path d="M0 0 C12.75889208 -0.45184213 23.95273453 0.23024971 33.94824219 9.078125 C41.5856708 17.91072374 43.32225195 25.96050694 43.26074219 37.390625 C43.25337036 39.029104 43.25337036 39.029104 43.24584961 40.70068359 C42.47475479 96.10088052 23.10979662 146.09145274 -15.05175781 186.078125 C-15.65246094 186.73167969 -16.25316406 187.38523437 -16.87207031 188.05859375 C-22.60638871 194.12429236 -29.41428302 199.05479134 -36.05175781 204.078125 C-36.61813965 204.51060547 -37.18452148 204.94308594 -37.76806641 205.38867188 C-47.31646499 212.63440199 -57.41523667 218.57048355 -68.05175781 224.078125 C-69.16695801 224.65626953 -69.16695801 224.65626953 -70.3046875 225.24609375 C-100.75749894 240.81115917 -154.52771477 263.1234045 -189.05175781 252.078125 C-197.14411961 249.21582666 -203.54699418 243.45647628 -207.48925781 235.828125 C-219.78694393 209.13718294 -202.33464355 164.5100501 -193.07080078 138.80712891 C-190.42497062 131.72157799 -187.37268636 124.87053857 -184.05175781 118.078125 C-183.65118164 117.25248047 -183.25060547 116.42683594 -182.83789062 115.57617188 C-159.10601814 67.16967873 -119.69927321 29.80640825 -68.53125 11.90283203 C-46.48685042 4.57061642 -23.18319367 0.88274893 0 0 Z M-39.05175781 17.078125 C-39.97698242 17.27067871 -40.90220703 17.46323242 -41.85546875 17.66162109 C-53.66355974 20.14219058 -64.95613063 23.32088862 -76.05175781 28.078125 C-77.07946289 28.51680908 -77.07946289 28.51680908 -78.12792969 28.96435547 C-117.63498333 46.09677611 -147.73562917 76.47030132 -168.05175781 114.078125 C-168.60839111 115.10655518 -168.60839111 115.10655518 -169.17626953 116.15576172 C-178.51269113 133.61904545 -185.11796003 151.92983998 -190.05175781 171.078125 C-190.24753418 171.83754395 -190.44331055 172.59696289 -190.64501953 173.37939453 C-194.09851495 186.98526163 -197.25076698 201.03722687 -198.05175781 215.078125 C-198.1484375 216.44710937 -198.1484375 216.44710937 -198.24707031 217.84375 C-198.50340242 224.09825334 -198.02264843 229.05418052 -194.05175781 234.078125 C-186.80010862 240.64187072 -181.27801027 241.66197371 -171.69580078 241.26611328 C-161.74631787 240.55871699 -151.86962337 238.78334144 -142.05175781 237.078125 C-140.8807251 236.87775635 -140.8807251 236.87775635 -139.68603516 236.67333984 C-98.20630748 229.21597364 -56.91899643 208.53562368 -26.53564453 179.49462891 C-25.54758006 178.55143212 -24.55439888 177.6135661 -23.55615234 176.68115234 C-3.67665958 158.08253806 9.93128185 134.6261793 18.94824219 109.078125 C19.22893555 108.29228027 19.50962891 107.50643555 19.79882812 106.69677734 C27.53887252 84.69371829 30.94179886 61.66450661 31.32324219 38.390625 C31.3493457 37.4819165 31.37544922 36.57320801 31.40234375 35.63696289 C31.41954257 29.01234692 30.14023582 23.52614024 25.53588867 18.55249023 C18.30383839 12.15397224 10.78767974 12.67748818 1.63574219 12.703125 C0.60105804 12.70344223 0.60105804 12.70344223 -0.45452881 12.70376587 C-13.62809769 12.74392339 -26.1667771 14.2834374 -39.05175781 17.078125 Z " fill="#FFF" transform="translate(240.0517578125,589.921875)"/>
<path d="M0 0 C-3.68841094 38.02485506 -21.93921643 72.77734187 -47 101 C-47.58007812 101.65355469 -48.16015625 102.30710937 -48.7578125 102.98046875 C-71.50843658 127.04582739 -107.24457008 142.65348528 -140 145 C-141.66654071 145.02049025 -143.33355806 145.02736857 -145 145 C-142.40276262 108.72823657 -127.89330311 76.3781668 -103 50 C-102.32710937 49.26265625 -101.65421875 48.5253125 -100.9609375 47.765625 C-77.88360275 23.39181077 -33.88986249 0 0 0 Z M-17 16 C-36.60159205 22.03480272 -56.2070531 28.90803357 -73 41 C-73.98355469 41.68964844 -74.96710938 42.37929687 -75.98046875 43.08984375 C-90.12476674 53.44395226 -102.8043688 66.02034498 -112 81 C-112.57306885 81.9278833 -112.57306885 81.9278833 -113.15771484 82.87451172 C-121.5995707 96.87124301 -128.59755661 113.61868209 -130 130 C-100.94137024 129.06262485 -72.38279021 109.46169165 -52.98046875 89.2890625 C-43.53201645 79.09864963 -36.35794084 67.29345786 -30 55 C-29.68579102 54.39752441 -29.37158203 53.79504883 -29.04785156 53.17431641 C-24.9844938 45.27093377 -21.86024495 37.15671395 -19 28.75 C-18.68466309 27.8319458 -18.36932617 26.9138916 -18.04443359 25.96801758 C-17.76164551 25.10716553 -17.47885742 24.24631348 -17.1875 23.359375 C-16.93355469 22.59077148 -16.67960937 21.82216797 -16.41796875 21.03027344 C-15.78447779 18.81152577 -15.78447779 18.81152577 -17 16 Z " fill="#FFF" transform="translate(786,99)"/>
<path d="M0 0 C42.07712208 4.45341803 86.09417153 27.65304502 112.74389648 60.46386719 C130.92686398 83.60518325 145.19834855 115.04128619 144 145 C106.02174074 143.79625169 70.34829172 125.4064276 44.171875 98.41796875 C22.4131109 74.19373317 -1.21926047 33.42805802 0 0 Z M16 16 C17.18979023 23.02819391 19.03512429 29.48996724 21.625 36.125 C21.97618896 37.0329834 22.32737793 37.9409668 22.68920898 38.87646484 C37.1720269 75.61100812 62.11317734 105.55715983 98.546875 121.80078125 C108.57952159 126.01500209 119.29252339 129.04720201 130 131 C127.95443253 110.47378848 119.15174279 90.5071199 107 74 C106.42121094 73.19820312 105.84242188 72.39640625 105.24609375 71.5703125 C84.22418915 43.8740667 50.39745226 22.25057028 16 16 Z " fill="#FFF" transform="translate(55,99)"/>
<path d="M0 0 C0.70603261 10.17863685 -1.25013569 19.2984787 -4 29 C-4.2254248 29.80614746 -4.45084961 30.61229492 -4.68310547 31.44287109 C-10.3803981 51.29636944 -19.3046851 70.39614964 -33 86 C-33.45842285 86.53238281 -33.9168457 87.06476563 -34.38916016 87.61328125 C-58.57972015 115.57773233 -92.22663714 132.8315481 -127.75 141.9375 C-128.57185791 142.14930908 -129.39371582 142.36111816 -130.24047852 142.5793457 C-134.95334401 143.71931224 -139.15290475 144.21384244 -144 144 C-143.53287728 136.59606056 -142.44413886 129.70179284 -140.4375 122.5625 C-140.17283936 121.61511963 -139.90817871 120.66773926 -139.63549805 119.69165039 C-133.07146163 96.9399845 -122.87557771 74.54367488 -108 56 C-107.51305664 55.38962891 -107.02611328 54.77925781 -106.52441406 54.15039062 C-85.59428584 28.24192907 -58.11267438 11.59866085 -25.9375 3.3125 C-25.11000244 3.09754883 -24.28250488 2.88259766 -23.42993164 2.66113281 C-15.68275278 0.74294452 -7.99202134 -0.21031635 0 0 Z M-78 43 C-79.24716797 44.06541016 -79.24716797 44.06541016 -80.51953125 45.15234375 C-103.89250461 65.58125595 -123.41454394 96.9207978 -128 128 C-122.20609178 127.38561242 -117.04638481 125.87723325 -111.5625 123.9375 C-110.68722656 123.62876953 -109.81195313 123.32003906 -108.91015625 123.00195312 C-100.58034706 119.98118656 -92.76593549 116.24632408 -85 112 C-83.93265625 111.42378906 -82.8653125 110.84757813 -81.765625 110.25390625 C-70.41100794 103.88531922 -60.45444849 95.90776269 -51 87 C-49.98679688 86.08347656 -49.98679688 86.08347656 -48.953125 85.1484375 C-30.96491277 68.23951801 -18.22031749 42.15629342 -14 18 C-14 16.68 -14 15.36 -14 14 C-35.55405888 14 -62.28859933 29.3142014 -78 43 Z " fill="#FFF" transform="translate(229,644)"/>
<path d="M0 0 C33.8538908 -0.70996018 68.76419848 16.34230824 93 39 C93.95261719 39.87140625 94.90523437 40.7428125 95.88671875 41.640625 C118.5832007 63.2686563 132.81336684 93.25354588 141.1875 123.0625 C141.58134888 124.44659058 141.58134888 124.44659058 141.9831543 125.85864258 C143.631057 131.89844016 144.58469493 137.75350725 145 144 C122.14308466 142.54876728 99.95159689 133.85546547 80 123 C79.39752441 122.68063477 78.79504883 122.36126953 78.17431641 122.03222656 C42.85792444 103.27426157 18.35123308 71.87172218 6.46875 34 C4.58179262 27.73226718 3.15559175 21.44527232 2 15 C1.79632812 13.9584375 1.59265625 12.916875 1.3828125 11.84375 C0.60235802 7.78111022 0 4.15346343 0 0 Z M15 14 C15.53888069 21.24495152 17.18002836 27.62789168 19.5 34.5 C19.85457275 35.55155273 20.20914551 36.60310547 20.57446289 37.68652344 C27.14501865 56.53504229 37.3356669 71.49554516 51 86 C51.59941406 86.66386719 52.19882812 87.32773437 52.81640625 88.01171875 C71.39077439 107.78960966 99.12105641 121.00023372 125 128 C126.32 128 127.64 128 129 128 C123.43992812 99.50463163 108.11795097 72.61942482 88 52 C87.22398437 51.15050781 86.44796875 50.30101562 85.6484375 49.42578125 C67.72853632 30.33719086 42.18840437 19.43875076 17 14 C16.34 14 15.68 14 15 14 Z " fill="#FFF" transform="translate(611,644)"/>
</svg>
