<svg width="28" height="28" viewBox="0 0 28 28" fill="none" xmlns="http://www.w3.org/2000/svg">
<g id="Telegram">
<path id="Oval" d="M14 28C21.732 28 28 21.732 28 14C28 6.26801 21.732 0 14 0C6.26801 0 0 6.26801 0 14C0 21.732 6.26801 28 14 28Z" fill="url(#paint0_linear_185_162)"/>
<path id="Shape" d="M11.4333 20.4166C10.9798 20.4166 11.0568 20.2453 10.9004 19.8135L9.56665 15.4239L19.8333 9.33325" fill="#C8DAEA"/>
<path id="Shape_2" d="M11.4333 20.4166C11.7833 20.4166 11.938 20.2565 12.1333 20.0666L14 18.2515L11.6716 16.8474" fill="#A9C9DD"/>
<path id="Shape_3" d="M11.6714 16.8479L17.3134 21.0163C17.9572 21.3716 18.4219 21.1876 18.5822 20.4186L20.8788 9.59624C21.1139 8.65355 20.5195 8.22599 19.9035 8.50561L6.41804 13.7056C5.49753 14.0748 5.5029 14.5883 6.25025 14.8172L9.71094 15.8973L17.7228 10.8427C18.101 10.6134 18.4481 10.7367 18.1632 10.9895" fill="url(#paint1_linear_185_162)"/>
</g>
<defs>
<linearGradient id="paint0_linear_185_162" x1="10.5014" y1="1.1676" x2="3.5014" y2="17.5" gradientUnits="userSpaceOnUse">
<stop stop-color="#37AEE2"/>
<stop offset="1" stop-color="#1E96C8"/>
</linearGradient>
<linearGradient id="paint1_linear_185_162" x1="12.2475" y1="14.8601" x2="13.7433" y2="19.6988" gradientUnits="userSpaceOnUse">
<stop stop-color="#EFF7FC"/>
<stop offset="1" stop-color="white"/>
</linearGradient>
</defs>
</svg>
