<svg width="14" height="14" viewBox="0 0 14 14" fill="none" xmlns="http://www.w3.org/2000/svg">
<path d="M7 14C3.141 14 0 10.86 0 7C0 3.14 3.141 0 7 0C10.859 0 14 3.14 14 7C14 10.86 10.859 14 7 14ZM7 1C3.691 1 1 3.691 1 7C1 10.309 3.691 13 7 13C10.309 13 13 10.309 13 7C13 3.691 10.309 1 7 1Z" fill="#FE0101"/>
<path d="M7.00001 9.16701C8.19681 9.16701 9.16701 8.19681 9.16701 7.00001C9.16701 5.80321 8.19681 4.83301 7.00001 4.83301C5.80321 4.83301 4.83301 5.80321 4.83301 7.00001C4.83301 8.19681 5.80321 9.16701 7.00001 9.16701Z" fill="#FE0101"/>
</svg>
