<svg width="50" height="50" viewBox="0 0 50 50" fill="none" xmlns="http://www.w3.org/2000/svg">
<path d="M24.4049 18.7497C24.4049 21.8984 22.2065 24.1361 19.4947 24.1361C16.7829 24.1361 14.5845 21.8984 14.5845 18.7497C14.5845 15.6009 16.7829 13.7194 19.4947 13.7194C22.2065 13.7194 24.4049 15.6009 24.4049 18.7497Z" stroke="#A3C03E" stroke-width="2" stroke-linejoin="round"/>
<path d="M32.2915 36.8439C32.2915 40.0826 28.5036 42.7081 19.7915 42.7081C11.0794 42.7081 7.2915 40.0826 7.2915 36.8439C7.2915 33.6051 12.8879 30.9796 19.7915 30.9796C26.6951 30.9796 32.2915 33.6051 32.2915 36.8439Z" stroke="#A3C03E" stroke-width="2" stroke-linejoin="round"/>
<path d="M35.4165 8.33325L37.1872 12.1461L41.3606 12.6519L38.2816 15.5142L39.0902 19.6396L35.4165 17.5958L31.7428 19.6396L32.5514 15.5142L29.4724 12.6519L33.6458 12.1461L35.4165 8.33325Z" stroke="#A3C03E" stroke-width="2" stroke-linejoin="round"/>
</svg>
