<svg width="50" height="50" viewBox="0 0 50 50" fill="none" xmlns="http://www.w3.org/2000/svg">
<path d="M33.3863 42.8558L33.3869 36.1604C33.3872 32.4621 30.3892 29.4639 26.6909 29.4639H11.6967C7.99892 29.4639 5.00117 32.4613 5.00075 36.1591L5 42.8558M44.9994 42.8561L45 36.1608C45.0003 32.4625 42.0023 29.4642 38.304 29.4642M32.0965 8.45947C33.7409 9.67955 34.8066 11.6355 34.8066 13.8404C34.8066 16.0452 33.7409 18.0012 32.0965 19.2212M26.0287 13.84C26.0287 17.5381 23.0309 20.5359 19.3328 20.5359C15.6347 20.5359 12.6368 17.5381 12.6368 13.84C12.6368 10.1419 15.6347 7.14404 19.3328 7.14404C23.0309 7.14404 26.0287 10.1419 26.0287 13.84Z" stroke="#6BA9DE" stroke-width="2" stroke-linecap="round" stroke-linejoin="round"/>
</svg>
