<svg width="80" height="80" viewBox="0 0 80 80" fill="none" xmlns="http://www.w3.org/2000/svg">
<path d="M40 53.3333V63.3333" stroke="#DC932D" stroke-width="5" stroke-linecap="round"/>
<path d="M51.6668 73.3333H28.3335L29.4642 67.6797C29.7759 66.1217 31.1439 65 32.7328 65H47.2675C48.8565 65 50.2245 66.1217 50.5362 67.6797L51.6668 73.3333Z" stroke="#DC932D" stroke-width="5" stroke-linecap="round" stroke-linejoin="round"/>
<path d="M63.3335 16.6667L66.4955 17.7208C69.7958 18.8208 71.4458 19.3709 72.3895 20.6803C73.3335 21.9898 73.3335 23.7292 73.3332 27.2079V27.4496C73.3332 30.3188 73.3332 31.7533 72.6425 32.927C71.9518 34.1007 70.6978 34.7974 68.1898 36.1907L58.3335 41.6667" stroke="#DC932D" stroke-width="5"/>
<path d="M16.6663 16.6667L13.5042 17.7208C10.204 18.8208 8.55394 19.3709 7.61017 20.6803C6.66637 21.9898 6.66641 23.7292 6.66651 27.2079V27.4496C6.66661 30.3188 6.66664 31.7533 7.35727 32.927C8.04787 34.1007 9.30194 34.7974 11.81 36.1907L21.6663 41.6667" stroke="#DC932D" stroke-width="5"/>
<path d="M37.153 20.0751C38.4197 17.8029 39.053 16.6667 40 16.6667C40.947 16.6667 41.5803 17.8029 42.847 20.0751L43.1747 20.663C43.5343 21.3087 43.7143 21.6315 43.995 21.8445C44.2757 22.0576 44.625 22.1366 45.324 22.2948L45.9603 22.4388C48.42 22.9953 49.65 23.2736 49.9427 24.2145C50.2353 25.1554 49.3967 26.1358 47.72 28.0967L47.286 28.604C46.8097 29.1612 46.5713 29.4398 46.464 29.7844C46.357 30.1291 46.393 30.5008 46.465 31.2443L46.5307 31.9211C46.784 34.5374 46.911 35.8454 46.145 36.4271C45.3787 37.0084 44.2273 36.4784 41.9243 35.4181L41.3287 35.1437C40.674 34.8424 40.347 34.6917 40 34.6917C39.653 34.6917 39.326 34.8424 38.6713 35.1437L38.0757 35.4181C35.7727 36.4784 34.6213 37.0084 33.855 36.4271C33.0891 35.8454 33.2159 34.5374 33.4693 31.9211L33.535 31.2443C33.607 30.5008 33.643 30.1291 33.536 29.7844C33.4287 29.4398 33.1904 29.1612 32.7139 28.604L32.2801 28.0967C30.6032 26.1358 29.7648 25.1554 30.0574 24.2145C30.35 23.2736 31.5799 22.9953 34.0397 22.4388L34.676 22.2948C35.375 22.1366 35.7243 22.0576 36.005 21.8445C36.2857 21.6315 36.4657 21.3087 36.8253 20.663L37.153 20.0751Z" stroke="#DC932D" stroke-width="5"/>
<path d="M60 73.3333H20" stroke="#DC932D" stroke-width="5" stroke-linecap="round"/>
<path d="M56.6665 8.18665C59.1382 8.65831 60.6035 9.17671 61.8695 10.7362C63.4555 12.6892 63.3715 14.8 63.2038 19.0216C62.6015 34.1984 59.2002 53.3334 40.0005 53.3334C20.8005 53.3334 17.3993 34.1984 16.7967 19.0216C16.6291 14.8 16.5453 12.6892 18.1311 10.7362C19.7168 8.78321 21.6147 8.46298 25.4104 7.82255C29.1573 7.19038 34.0552 6.66675 40.0005 6.66675C42.3945 6.66675 44.6188 6.75168 46.6665 6.89438" stroke="#DC932D" stroke-width="5" stroke-linecap="round"/>
</svg>
