<svg width="28" height="28" viewBox="0 0 28 28" fill="none" xmlns="http://www.w3.org/2000/svg">
<g id="WhatsApp">
<path id="Oval" d="M14 28C21.732 28 28 21.732 28 14C28 6.26801 21.732 0 14 0C6.26801 0 0 6.26801 0 14C0 21.732 6.26801 28 14 28Z" fill="#25D366"/>
<path id="Page-1" fill-rule="evenodd" clip-rule="evenodd" d="M14.4614 21.7889H14.458C13.0647 21.7885 11.6957 21.4389 10.4798 20.7756L6.06665 21.9333L7.24768 17.6195C6.51916 16.3569 6.13582 14.9248 6.13645 13.4576C6.13827 8.86762 9.87279 5.1333 14.4614 5.1333C16.6884 5.13426 18.7785 6.00122 20.3503 7.57479C21.922 9.14828 22.7871 11.2398 22.7862 13.4642C22.7844 18.0531 19.0514 21.7871 14.4614 21.7889ZM10.6842 19.2686L10.9369 19.4185C11.9993 20.0489 13.217 20.3825 14.4586 20.383H14.4614C18.2751 20.383 21.3791 17.279 21.3806 13.4637C21.3813 11.6148 20.6623 9.87643 19.356 8.56854C18.0496 7.26065 16.3123 6.54003 14.4642 6.53939C10.6475 6.53939 7.54352 9.64311 7.542 13.4581C7.54147 14.7655 7.90728 16.0388 8.59991 17.1404L8.76443 17.4022L8.06543 19.9555L10.6842 19.2686ZM18.3706 15.2565C18.5156 15.3266 18.6136 15.374 18.6554 15.4438C18.7074 15.5305 18.7074 15.947 18.5342 16.433C18.3608 16.9188 17.5298 17.3623 17.1301 17.422C16.7717 17.4756 16.3182 17.4979 15.82 17.3396C15.5178 17.2437 15.1304 17.1157 14.6341 16.9014C12.6841 16.0594 11.3663 14.1694 11.1172 13.8122C11.0997 13.7871 11.0875 13.7696 11.0807 13.7605L11.079 13.7583C10.969 13.6114 10.2314 12.6273 10.2314 11.6088C10.2314 10.6506 10.702 10.1484 10.9187 9.91723C10.9335 9.90139 10.9472 9.88682 10.9594 9.87347C11.15 9.66522 11.3754 9.61316 11.5141 9.61316C11.6527 9.61316 11.7916 9.61444 11.9127 9.62053C11.9277 9.62128 11.9433 9.62119 11.9593 9.62109C12.0806 9.62038 12.2317 9.61949 12.3808 9.97759C12.4381 10.1154 12.522 10.3197 12.6105 10.5352C12.7895 10.9709 12.9873 11.4524 13.0221 11.5221C13.0741 11.6262 13.1088 11.7476 13.0394 11.8865C13.029 11.9073 13.0194 11.927 13.0102 11.9458C12.9581 12.0521 12.9198 12.1303 12.8314 12.2335C12.7967 12.2741 12.7607 12.3178 12.7248 12.3616C12.6533 12.4487 12.5817 12.5359 12.5194 12.5979C12.4153 12.7017 12.3069 12.8142 12.4282 13.0224C12.5495 13.2307 12.967 13.9118 13.5854 14.4634C14.2501 15.0563 14.8278 15.3069 15.1207 15.4339C15.1779 15.4587 15.2242 15.4788 15.2582 15.4958C15.4661 15.6 15.5874 15.5826 15.7088 15.4438C15.8301 15.305 16.2288 14.8364 16.3674 14.6282C16.5061 14.42 16.6448 14.4547 16.8354 14.5241C17.0261 14.5935 18.0488 15.0967 18.2568 15.2008C18.2974 15.2211 18.3354 15.2395 18.3706 15.2565Z" fill="white"/>
</g>
</svg>
